<?xml version="1.0" standalone="no"?><!DOCTYPE svg PUBLIC "-//W3C//DTD SVG 1.1//EN" "http://www.w3.org/Graphics/SVG/1.1/DTD/svg11.dtd"><svg t="1727234259572" class="icon" viewBox="0 0 1024 1024" version="1.1" xmlns="http://www.w3.org/2000/svg" p-id="1277" xmlns:xlink="http://www.w3.org/1999/xlink" width="64" height="64"><path d="M794.624 860.891429c0 26.477714-170.642286 106.642286-122.221714 64.731428 39.643429-34.304-115.492571 16.310857-184.978286 16.310857-20.626286 0-94.500571 7.314286-42.642286-8.484571s-56.027429 4.388571-74.020571 2.486857c-25.965714-2.852571-50.176-6.582857-72.045714-11.044571-18.578286-3.803429-109.714286 16.603429-50.249143-13.019429s-27.648-10.166857-38.034286-15.872c-19.382857-10.605714-30.208-22.528-30.208-35.108571 0-18.651429 23.917714-35.913143 64.146286-49.590858 19.821714-6.729143 94.646857-39.058286 70.436571-17.481142-32.182857 28.672 15.872-2.706286 24.210286-3.949715a1050.404571 1050.404571 0 0 1 148.406857-10.020571 937.618286 937.618286 0 0 1 199.021714 19.309714c16.530286 3.657143-35.620571 18.578286 44.836572 12.434286s24.722286 9.435429 34.084571 14.628571c18.797714 10.605714 29.257143 22.235429 29.257143 34.669715z" fill="#78A74C" p-id="1278"></path><path d="M849.042286 499.931429a14.628571 14.628571 0 0 1-13.970286-10.313143C816.274286 428.836571 652.726857 391.168 512 391.168s-303.908571 37.595429-322.998857 98.377143a14.628571 14.628571 0 0 1-13.970286 10.24h-0.950857a14.628571 14.628571 0 0 1-13.165714-12.068572 148.041143 148.041143 0 0 1 47.030857-137.728c14.116571-12.946286 27.428571-25.6 39.716571-37.668571a1731.730286 1731.730286 0 0 0 138.971429-156.525714 161.792 161.792 0 0 1 251.757714-1.097143A2197.357714 2197.357714 0 0 0 802.304 336.457143l16.384 16.018286a149.284571 149.284571 0 0 1 44.763429 135.68 14.628571 14.628571 0 0 1-13.458286 11.995428z" fill="#F7873C" p-id="1279"></path><path d="M512 109.714286a146.285714 146.285714 0 0 1 114.249143 54.198857 2235.538286 2235.538286 0 0 0 165.522286 182.857143l16.603428 16.091428a134.582857 134.582857 0 0 1 40.448 122.514286C830.098286 424.228571 686.445714 376.539429 512 376.539429S194.194286 424.228571 175.030857 485.156571a133.705143 133.705143 0 0 1 42.569143-124.342857c13.750857-12.653714 27.136-25.380571 40.009143-37.961143a1752.429714 1752.429714 0 0 0 139.849143-157.988571A145.846857 145.846857 0 0 1 512 109.714286m0-29.257143a174.445714 174.445714 0 0 0-137.654857 66.267428 1723.830857 1723.830857 0 0 1-137.508572 155.209143C224.914286 313.856 212.114286 326.363429 197.485714 339.163429A162.669714 162.669714 0 0 0 146.285714 490.057143a29.257143 29.257143 0 0 0 26.989715 23.990857h1.828571a29.257143 29.257143 0 0 0 27.867429-20.48c11.556571-36.571429 125.44-87.771429 309.028571-87.771429s297.691429 51.2 309.101714 88.210286a29.257143 29.257143 0 0 0 27.940572 20.553143h1.828571a29.257143 29.257143 0 0 0 26.843429-24.064 163.766857 163.766857 0 0 0-49.005715-148.772571c-5.412571-5.193143-10.825143-10.532571-16.310857-15.945143a2192.457143 2192.457143 0 0 1-163.254857-180.297143A175.542857 175.542857 0 0 0 512 80.457143z" fill="#333333" p-id="1280"></path><path d="M374.345143 193.536a1673.142857 1673.142857 0 0 1-117.028572 129.243429c-12.873143 12.580571-26.258286 25.307429-40.009142 37.961142a133.705143 133.705143 0 0 0-42.569143 124.342858C194.194286 424.228571 337.700571 376.539429 512 376.539429A874.569143 874.569143 0 0 1 654.043429 387.657143c-49.444571-51.2-92.598857-100.937143-128.146286-144.749714a147.236571 147.236571 0 0 0-151.552-49.371429z" fill="#E3661C" p-id="1281"></path><path d="M512 625.956571a838.436571 838.436571 0 0 1-193.097143-21.065142C268.580571 592.457143 227.328 575.853714 199.68 555.885714c-34.304-24.649143-41.545143-49.371429-41.545143-65.828571a61.952 61.952 0 0 1 2.925714-18.285714C185.636571 394.971429 356.205714 354.377143 512 354.377143s326.802286 40.594286 351.085714 117.833143a59.611429 59.611429 0 0 1 2.852572 17.993143c0 16.237714-7.314286 40.740571-40.667429 65.243428C797.257143 575.488 756.004571 592.457143 705.097143 604.891429A837.997714 837.997714 0 0 1 512 625.956571z" fill="#E3661C" p-id="1282"></path><path d="M512 369.005714c174.445714 0 318.098286 47.104 337.042286 107.593143a43.373714 43.373714 0 0 1 2.194285 13.604572c0 19.163429-12.507429 37.229714-34.669714 53.394285-26.185143 19.017143-65.828571 35.254857-114.907428 47.104A825.856 825.856 0 0 1 512 611.328a826.514286 826.514286 0 0 1-189.659429-20.626286c-48.420571-11.702857-87.771429-27.721143-114.102857-46.592-22.674286-16.237714-35.474286-34.523429-35.474285-53.906285a44.836571 44.836571 0 0 1 2.267428-13.824C194.194286 415.963429 337.700571 369.005714 512 369.005714m0-29.257143c-156.16 0-336.969143 40.009143-364.836571 127.780572a74.605714 74.605714 0 0 0-3.657143 22.674286c0 19.821714 8.265143 49.444571 47.689143 77.677714 29.257143 20.918857 72.118857 38.619429 124.342857 51.2A851.968 851.968 0 0 0 512 640.585143a851.529143 851.529143 0 0 0 196.534857-21.504c52.736-12.726857 96.036571-30.646857 125.293714-51.858286 38.619429-28.013714 46.738286-57.344 46.738286-77.019428a74.752 74.752 0 0 0-3.584-22.089143C849.408 380.342857 668.452571 340.041143 512 340.041143z" fill="#333333" p-id="1283"></path><path d="M475.428571 847.945143c-39.862857 0-67.803429-9.654857-85.430857-29.257143-22.966857-25.965714-21.430857-63.049143-18.358857-88.722286A1020.123429 1020.123429 0 0 1 394.971429 611.254857c0.877714-3.437714 1.901714-7.314286 2.925714-11.337143 13.750857-53.101714 39.204571-151.917714 118.125714-151.917714h0.877714a71.241143 71.241143 0 0 1 35.913143 9.874286c32.987429 19.090286 47.908571 66.340571 34.669715 109.714285a157.988571 157.988571 0 0 0-5.193143 65.828572c7.753143 58.514286 11.117714 90.770286 11.117714 91.062857a19.821714 19.821714 0 0 1 0 2.121143c-2.925714 68.754286-13.312 121.344-117.979429 121.344z" fill="#CECDCC" p-id="1284"></path><path d="M515.730286 462.628571h0.731428a57.563429 57.563429 0 0 1 28.745143 7.899429c27.501714 15.945143 38.765714 57.344 27.940572 92.964571a171.593143 171.593143 0 0 0-5.632 71.899429c7.826286 59.318857 11.044571 90.697143 11.044571 90.697143-2.56 64.146286-9.728 107.227429-103.131429 107.227428-86.454857 0-95.670857-49.225143-89.234285-101.814857a995.84 995.84 0 0 1 22.601143-116.443428c12.361143-45.860571 33.718857-152.429714 106.934857-152.429715m0-29.257142c-90.258286 0-118.637714 109.714286-132.242286 162.889142-1.097143 4.022857-2.048 7.826286-2.998857 11.190858a1015.369143 1015.369143 0 0 0-23.332572 120.393142c-3.510857 28.525714-4.973714 69.851429 21.942858 100.205715 20.333714 22.893714 52.736 34.523429 96.402285 34.523428 53.76 0 88.429714-13.165714 109.275429-41.545143 18.944-25.819429 21.942857-59.099429 23.113143-93.842285a26.477714 26.477714 0 0 0 0-4.169143c0-1.243429-3.364571-32.402286-11.117715-91.428572a143.140571 143.140571 0 0 1 4.608-59.611428c15.140571-49.883429-2.633143-104.374857-41.325714-126.756572a86.747429 86.747429 0 0 0-43.373714-11.849142z" fill="#333333" p-id="1285"></path><path d="M519.314286 829.001143c-1.755429-15.140571-4.681143-39.131429-8.923429-71.460572a171.300571 171.300571 0 0 1 5.705143-71.899428C526.628571 650.020571 515.291429 608.621714 487.716571 592.457143a57.344 57.344 0 0 0-28.745142-7.314286 68.681143 68.681143 0 0 0-46.884572 17.700572c-1.170286 4.534857-2.267429 8.777143-3.291428 12.580571A995.84 995.84 0 0 0 386.194286 731.428571c-6.436571 52.589714 2.779429 101.814857 89.234285 101.814858a188.196571 188.196571 0 0 0 43.885715-4.242286z" fill="#FFFFFF" p-id="1286"></path><path d="M528.749714 210.578286a35.986286 35.986286 0 1 0 3.510857-27.282286 36.205714 36.205714 0 0 0-3.510857 27.282286M605.842286 263.314286a21.942857 21.942857 0 0 0 10.093714 13.092571 21.577143 21.577143 0 0 0 31.524571-24.356571 21.942857 21.942857 0 0 0-10.020571-13.092572 21.942857 21.942857 0 0 0-16.384-2.048A21.504 21.504 0 0 0 605.842286 263.314286" fill="#F8FFE6" p-id="1287"></path></svg>